<svg xmlns="http://www.w3.org/2000/svg" width="20" height="20" viewBox="0 0 20 20">
  <g fill="none">
    <path stroke="#000" stroke-width=".909" d="M14.7058824,0.454545455 L5.29411765,0.454545455 C2.62129573,0.454545455 0.454545455,2.62129573 0.454545455,5.29411765 L0.454545455,14.7058824 C0.454545455,17.3787043 2.62129573,19.5454545 5.29411765,19.5454545 L14.7058824,19.5454545 C15.9894167,19.5454545 17.2203808,19.0355725 18.1279767,18.1279767 C19.0355725,17.2203808 19.5454545,15.9894167 19.5454545,14.7058824 L19.5454545,5.29411765 C19.5454545,2.62129573 17.3787043,0.454545455 14.7058824,0.454545455 Z"/>
    <path fill="#000" d="M10.4545455 6.36363636C8.19519875 6.36363636 6.36363636 8.19519875 6.36363636 10.4545455 6.36363636 12.7138922 8.19519875 14.5454545 10.4545455 14.5454545 12.7138922 14.5454545 14.5454545 12.7138922 14.5454545 10.4545455 14.5454545 9.36956891 14.1144493 8.32903017 13.347255 7.5618359 12.5800607 6.79464162 11.539522 6.36363636 10.4545455 6.36363636zM10.4545455 13.5227273C8.76003543 13.5227273 7.38636364 12.1490555 7.38636364 10.4545455 7.38636364 8.76003543 8.76003543 7.38636364 10.4545455 7.38636364 12.1490555 7.38636364 13.5227273 8.76003543 13.5227273 10.4545455 13.5227273 11.2682779 13.1994733 12.0486819 12.6240776 12.6240776 12.0486819 13.1994733 11.2682779 13.5227273 10.4545455 13.5227273zM14.7474747 3.63636364C14.133825 3.63636364 13.6363636 4.13382503 13.6363636 4.74747475 13.6363636 5.36112447 14.133825 5.85858586 14.7474747 5.85858586 15.3611245 5.85858586 15.8585859 5.36112447 15.8585859 4.74747475 15.8585859 4.13382503 15.3611245 3.63636364 14.7474747 3.63636364z"/>
  </g>
</svg>
