<svg xmlns="http://www.w3.org/2000/svg" xmlns:xlink="http://www.w3.org/1999/xlink" width="21" height="15" viewBox="0 0 21 15">
  <defs>
    <rect id="us_flag-a" width="21" height="15"/>
    <rect id="us_flag-c" width="21" height="15"/>
    <rect id="us_flag-e" width="21" height="15"/>
  </defs>
  <g fill="none" fill-rule="evenodd">
    <rect width="21" height="15" fill="#FFF" fill-rule="nonzero"/>
    <mask id="us_flag-b" fill="#fff">
      <use xlink:href="#us_flag-a"/>
    </mask>
    <g fill-rule="nonzero" mask="url(#us_flag-b)">
      <rect width="9" height="7" fill="#435DB0"/>
      <rect width="9" height="7" fill="#000"/>
    </g>
    <g>
      <mask id="us_flag-d" fill="#fff">
        <use xlink:href="#us_flag-c"/>
      </mask>
      <path fill="#A7B6E6" fill-rule="nonzero" d="M1,1 L1,2 L2,2 L2,1 L1,1 Z M3,1 L3,2 L4,2 L4,1 L3,1 Z M5,1 L5,2 L6,2 L6,1 L5,1 Z M7,1 L7,2 L8,2 L8,1 L7,1 Z M6,2 L6,3 L7,3 L7,2 L6,2 Z M4,2 L4,3 L5,3 L5,2 L4,2 Z M2,2 L2,3 L3,3 L3,2 L2,2 Z M1,3 L1,4 L2,4 L2,3 L1,3 Z M3,3 L3,4 L4,4 L4,3 L3,3 Z M5,3 L5,4 L6,4 L6,3 L5,3 Z M7,3 L7,4 L8,4 L8,3 L7,3 Z M1,5 L1,6 L2,6 L2,5 L1,5 Z M3,5 L3,6 L4,6 L4,5 L3,5 Z M5,5 L5,6 L6,6 L6,5 L5,5 Z M7,5 L7,6 L8,6 L8,5 L7,5 Z M6,4 L6,5 L7,5 L7,4 L6,4 Z M4,4 L4,5 L5,5 L5,4 L4,4 Z M2,4 L2,5 L3,5 L3,4 L2,4 Z" mask="url(#us_flag-d)"/>
    </g>
    <g>
      <mask id="us_flag-f" fill="#fff">
        <use xlink:href="#us_flag-e"/>
      </mask>
      <path fill="#ED4C49" fill-rule="nonzero" d="M9,0 L9,1 L21,1 L21,0 L9,0 Z M9,2 L9,3 L21,3 L21,2 L9,2 Z M9,4 L9,5 L21,5 L21,4 L9,4 Z M9,6 L9,7 L21,7 L21,6 L9,6 Z M0,8 L0,9 L21,9 L21,8 L0,8 Z M0,10 L0,11 L21,11 L21,10 L0,10 Z M0,12 L0,13 L21,13 L21,12 L0,12 Z M0,14 L0,15 L21,15 L21,14 L0,14 Z" mask="url(#us_flag-f)"/>
    </g>
  </g>
</svg>
